<svg width="1920" height="1078" viewBox="0 0 1920 1078" fill="none" xmlns="http://www.w3.org/2000/svg">
<g clip-path="url(#clip0_1_2)">
<rect width="1920" height="1078" fill="white"/>
<g clip-path="url(#clip1_1_2)">
<path d="M2083 -31H-135V1078H2083V-31Z" fill="#E81A3F"/>
<path d="M2083 -31H-135V1078H2083V-31Z" fill="url(#paint0_radial_1_2)"/>
<path d="M606.644 969.872C1066.01 969.872 1438.39 597.485 1438.39 138.122C1438.39 -321.24 1066.01 -693.628 606.644 -693.628C147.281 -693.628 -225.106 -321.24 -225.106 138.122C-225.106 597.485 147.281 969.872 606.644 969.872Z" fill="url(#paint1_linear_1_2)" fill-opacity="0.4"/>
<path d="M1341.36 969.872C1800.72 969.872 2173.11 597.485 2173.11 138.122C2173.11 -321.24 1800.72 -693.628 1341.36 -693.628C881.993 -693.628 509.606 -321.24 509.606 138.122C509.606 597.485 881.993 969.872 1341.36 969.872Z" fill="url(#paint2_linear_1_2)" fill-opacity="0.4"/>
<path d="M974 883.925C1433.36 883.925 1805.75 511.538 1805.75 52.175C1805.75 -407.188 1433.36 -779.575 974 -779.575C514.637 -779.575 142.25 -407.188 142.25 52.175C142.25 511.538 514.637 883.925 974 883.925Z" fill="url(#paint3_linear_1_2)" fill-opacity="0.4"/>
</g>
</g>
<defs>
<radialGradient id="paint0_radial_1_2" cx="0" cy="0" r="1" gradientUnits="userSpaceOnUse" gradientTransform="translate(962.91 748.073) scale(1425.07)">
<stop stop-color="#E81A3F"/>
<stop offset="1" stop-color="#BD4545"/>
</radialGradient>
<linearGradient id="paint1_linear_1_2" x1="974" y1="379.33" x2="974" y2="892.243" gradientUnits="userSpaceOnUse">
<stop stop-color="#FFAA33" stop-opacity="0"/>
<stop offset="1" stop-color="#FFAA33" stop-opacity="0.5"/>
</linearGradient>
<linearGradient id="paint2_linear_1_2" x1="974" y1="379.33" x2="974" y2="892.243" gradientUnits="userSpaceOnUse">
<stop stop-color="#FFAA33" stop-opacity="0"/>
<stop offset="1" stop-color="#FFAA33" stop-opacity="0.5"/>
</linearGradient>
<linearGradient id="paint3_linear_1_2" x1="974" y1="379.33" x2="974" y2="892.243" gradientUnits="userSpaceOnUse">
<stop stop-color="#EF7B58" stop-opacity="0"/>
<stop offset="1" stop-color="#EF7B58" stop-opacity="0.5"/>
</linearGradient>
<clipPath id="clip0_1_2">
<rect width="1920" height="1078" fill="white"/>
</clipPath>
<clipPath id="clip1_1_2">
<rect width="2218" height="1109" fill="white" transform="translate(-135 -31)"/>
</clipPath>
</defs>
</svg>
