<svg width="76" height="76" viewBox="0 0 76 76" fill="none" xmlns="http://www.w3.org/2000/svg">
<path d="M15.8837 4.53476V7.11163H70.8649V4.53476C70.8649 4.37729 70.8024 4.22626 70.691 4.11491C70.5797 4.00357 70.4287 3.94101 70.2712 3.94101H16.4774C16.32 3.94101 16.169 4.00357 16.0576 4.11491C15.9463 4.22626 15.8837 4.37729 15.8837 4.53476Z" fill="#FED44A"/>
<path d="M17.7273 36.5143C17.7273 36.5143 16.3913 38.4915 17.2998 41.4305C17.2998 41.4305 15.9638 50.408 15.3226 52.3318C14.6813 54.2555 10.9763 64.7293 10.9763 64.7293L17.7273 66.5105L22.2428 51.5124L21.8063 66.5105H28.682C28.682 66.5105 28.8601 43.8974 27.1501 39.1015L25.4869 37.2461L25.2443 37.4762L24.3684 36.5143H17.7273Z" fill="#2CA68F"/>
<path d="M23.4451 19.1204C23.4451 19.1204 25.7162 19.2006 25.1551 20.4831C24.594 21.7656 23.1245 20.9373 23.1245 20.9373C23.1245 20.9373 23.4184 23.1816 22.1893 22.2465C20.9603 21.3113 21.3076 23.6359 22.4031 23.529C22.4031 23.529 23.4451 25.7199 22.697 26.5215C21.9489 27.3231 20.8534 26.6284 20.5862 25.8001C20.5862 25.8001 19.0365 26.2276 18.9831 24.4641C18.9296 22.7007 18.3151 22.5137 19.1968 21.8724C20.0786 21.2312 20.7198 18.1852 23.4451 19.1204Z" fill="black"/>
<path d="M24.7623 26.7027C24.1045 26.7027 22.9392 26.1724 22.8899 26.1499C22.8811 26.1459 22.8731 26.1401 22.8664 26.133C22.8598 26.1258 22.8546 26.1175 22.8512 26.1083C22.8444 26.0899 22.8451 26.0694 22.8533 26.0515C22.8615 26.0336 22.8764 26.0197 22.8949 26.0128C22.9134 26.0059 22.9338 26.0067 22.9517 26.0149C22.9636 26.0204 24.1368 26.5543 24.7623 26.5543C24.8406 26.5543 24.8593 26.5394 24.8594 26.5393C24.8557 26.4526 24.4297 26.1053 23.9225 25.7885C23.4712 25.653 23.6844 24.7776 23.6939 24.7401C23.6977 24.7246 23.7064 24.7108 23.7188 24.7007C23.7311 24.6905 23.7464 24.6847 23.7623 24.684C24.5864 24.6461 25.1604 24.3678 25.4683 23.8566C26.2244 22.6011 25.1676 20.3278 25.1569 20.3051C25.1485 20.2873 25.1474 20.2669 25.1541 20.2483C25.1607 20.2298 25.1744 20.2146 25.1922 20.2062C25.21 20.1978 25.2304 20.1968 25.249 20.2034C25.2675 20.21 25.2826 20.2237 25.2911 20.2415C25.3363 20.3377 26.3926 22.6091 25.5957 23.9329C25.2678 24.4773 24.6724 24.7788 23.8255 24.8293C23.7733 25.0764 23.7212 25.5814 23.9719 25.6482C23.979 25.6502 23.9857 25.6531 23.9919 25.657C24.3952 25.908 25.0622 26.3628 24.9979 26.5872C24.965 26.7027 24.8124 26.7027 24.7623 26.7027Z" fill="black"/>
<path d="M25.2442 37.5505H25.2415C25.2316 37.5501 25.222 37.5478 25.213 37.5436C25.2041 37.5395 25.196 37.5336 25.1894 37.5263L24.3356 36.5885H16.8189C16.8079 36.5885 16.7971 36.586 16.7872 36.5814C16.7774 36.5767 16.7686 36.5699 16.7617 36.5615C16.7547 36.553 16.7497 36.5431 16.7471 36.5326C16.7444 36.522 16.744 36.5109 16.7461 36.5002C17.9638 30.2527 20.6298 26.0954 20.6567 26.054C20.6674 26.0375 20.6843 26.0259 20.7035 26.0218C20.7228 26.0178 20.7429 26.0215 20.7594 26.0322C20.7759 26.0429 20.7875 26.0598 20.7916 26.079C20.7957 26.0983 20.792 26.1184 20.7812 26.1349C20.7545 26.1759 18.1287 30.2719 16.9091 36.4401H24.3684C24.3787 36.4401 24.3889 36.4422 24.3984 36.4464C24.4078 36.4505 24.4163 36.4566 24.4233 36.4642L25.2482 37.3703L28.5794 34.2116L26.5151 31.834C26.5058 31.8233 26.4997 31.8101 26.4977 31.7961C26.4956 31.782 26.4977 31.7677 26.5035 31.7548C26.5086 31.7439 26.9904 30.6557 26.5596 29.8702C26.1118 29.0535 24.944 27.2161 24.9322 27.1977C24.9256 27.1874 24.9216 27.1756 24.9207 27.1633C24.9198 27.1511 24.922 27.1388 24.927 27.1276C24.932 27.1164 24.9397 27.1066 24.9494 27.0991C24.9591 27.0916 24.9705 27.0866 24.9826 27.0846L27.6673 26.6328L24.1739 25.9466C24.164 25.9451 24.1544 25.9417 24.1458 25.9365C24.1372 25.9312 24.1297 25.9243 24.1239 25.9161C24.118 25.9079 24.1139 25.8986 24.1118 25.8887C24.1097 25.8789 24.1096 25.8687 24.1115 25.8588C24.1135 25.8489 24.1174 25.8395 24.1231 25.8312C24.1288 25.8229 24.1361 25.8158 24.1446 25.8104C24.1531 25.805 24.1626 25.8014 24.1725 25.7998C24.1825 25.7982 24.1927 25.7986 24.2024 25.8011L28.0952 26.5655C28.1123 26.5689 28.1277 26.5781 28.1386 26.5916C28.1496 26.6051 28.1555 26.622 28.1553 26.6394C28.155 26.6568 28.1487 26.6735 28.1374 26.6867C28.126 26.6999 28.1104 26.7087 28.0933 26.7116L25.1173 27.2124C25.3631 27.6007 26.2984 29.0853 26.6898 29.799C27.1102 30.5658 26.7489 31.5501 26.6576 31.7717L28.7381 34.1679C28.7506 34.1824 28.757 34.2011 28.7561 34.2202C28.7552 34.2393 28.7469 34.2573 28.733 34.2705L25.2952 37.5302C25.2814 37.5432 25.2632 37.5505 25.2442 37.5505Z" fill="black"/>
<path d="M24.3685 36.5885C24.3564 36.5885 24.3444 36.5856 24.3337 36.5799C24.3229 36.5743 24.3137 36.566 24.3069 36.556C23.7756 35.7713 23.2904 34.9563 22.8539 34.1152C22.2393 32.8461 22.1711 29.4714 22.1685 29.3283C22.1682 29.3086 22.1756 29.2896 22.1893 29.2755C22.2029 29.2613 22.2216 29.2531 22.2413 29.2527H22.2428C22.2622 29.2527 22.2809 29.2604 22.2948 29.274C22.3087 29.2877 22.3167 29.3063 22.317 29.3258C22.3177 29.3603 22.3872 32.8106 22.9876 34.0505C23.4209 34.8852 23.9025 35.6939 24.4298 36.4726C24.4374 36.4837 24.4418 36.4968 24.4426 36.5102C24.4433 36.5237 24.4403 36.5371 24.434 36.549C24.4277 36.561 24.4183 36.5709 24.4067 36.5779C24.3951 36.5848 24.3819 36.5885 24.3684 36.5885H24.3685ZM26.5712 31.8596C26.5573 31.8596 26.5437 31.8557 26.5319 31.8483C26.5201 31.841 26.5107 31.8305 26.5045 31.818L25.0083 28.7719C25.004 28.7632 25.0015 28.7537 25.0008 28.7439C25.0002 28.7342 25.0015 28.7244 25.0047 28.7152C25.0078 28.706 25.0128 28.6975 25.0192 28.6902C25.0256 28.6828 25.0335 28.6769 25.0422 28.6726C25.051 28.6683 25.0605 28.6657 25.0702 28.6651C25.0799 28.6645 25.0897 28.6658 25.0989 28.6689C25.1082 28.6721 25.1167 28.677 25.124 28.6835C25.1313 28.6899 25.1373 28.6977 25.1416 28.7065L26.6378 31.7526C26.6434 31.7639 26.646 31.7764 26.6453 31.789C26.6447 31.8016 26.6408 31.8138 26.6342 31.8245C26.6275 31.8352 26.6182 31.844 26.6072 31.8501C26.5962 31.8562 26.5838 31.8596 26.5712 31.8596ZM25.0749 36.5885C25.0603 36.5885 25.046 36.5842 25.0338 36.5761C25.0216 36.568 25.0121 36.5564 25.0065 36.5429C25.0008 36.5294 24.9993 36.5146 25.0021 36.5002C25.0049 36.4858 25.0118 36.4726 25.0221 36.4622L27.7474 33.7101C27.7613 33.6961 27.7801 33.6882 27.7998 33.6881C27.8195 33.6879 27.8384 33.6956 27.8524 33.7095C27.8664 33.7233 27.8744 33.7422 27.8745 33.7619C27.8746 33.7815 27.8669 33.8005 27.8531 33.8145L25.1278 36.5665C25.1209 36.5735 25.1126 36.579 25.1036 36.5828C25.0945 36.5866 25.0848 36.5885 25.0749 36.5885ZM22.2428 51.5129L21.4145 43.3013L21.2558 54.7909L22.2428 51.5129ZM29.7653 42.7009C29.4907 42.7009 29.1999 42.5619 28.899 42.287C28.242 41.6832 27.7786 40.8982 27.5675 40.0312C27.4918 39.7024 27.094 39.1507 27.09 39.145C27.084 39.1372 27.0797 39.1282 27.0772 39.1186C27.0748 39.109 27.0743 39.099 27.0757 39.0893C27.0772 39.0795 27.0806 39.0701 27.0857 39.0616C27.0908 39.0532 27.0976 39.0459 27.1056 39.0401C27.1136 39.0343 27.1227 39.0301 27.1323 39.0279C27.142 39.0257 27.152 39.0254 27.1617 39.027C27.1714 39.0287 27.1808 39.0323 27.1891 39.0377C27.1974 39.043 27.2046 39.0499 27.2102 39.0581C27.2273 39.0815 27.6297 39.6399 27.7122 39.9978C27.9164 40.8356 28.3642 41.5941 28.9992 42.1775C29.3045 42.4565 29.5915 42.5812 29.85 42.5469C29.9459 42.531 30.0377 42.4962 30.12 42.4444C30.2023 42.3927 30.2735 42.3251 30.3295 42.2456C30.3384 42.2318 30.3516 42.2214 30.3671 42.2159C30.3825 42.2103 30.3994 42.21 30.415 42.215C30.8411 42.354 31.176 42.3476 31.4103 42.1951C31.4975 42.1331 31.5712 42.0541 31.6269 41.9627C31.6826 41.8713 31.7192 41.7695 31.7343 41.6636C31.7356 41.651 31.74 41.6391 31.7473 41.6287C31.7545 41.6184 31.7642 41.6101 31.7755 41.6045C31.7868 41.599 31.7993 41.5964 31.8119 41.5971C31.8245 41.5977 31.8367 41.6015 31.8474 41.6082C32.1372 41.7893 32.3809 41.8367 32.5718 41.7485C32.9072 41.5941 32.9896 41.0686 32.9904 41.0634C32.9924 41.0496 32.9984 41.0366 33.0075 41.026C33.0167 41.0154 33.0286 41.0076 33.042 41.0035C33.4355 40.8822 33.6396 40.6702 33.6656 40.3554C33.7735 39.0523 30.9219 36.595 30.5369 36.4025C30.0336 36.1509 28.4323 34.588 28.3643 34.5217C28.3502 34.5079 28.3422 34.4891 28.342 34.4694C28.3418 34.4497 28.3494 34.4307 28.3632 34.4166C28.377 34.4026 28.3958 34.3945 28.4155 34.3943C28.4352 34.3941 28.4542 34.4017 28.4682 34.4155C28.4846 34.4316 30.1205 36.0284 30.6032 36.2698C31.0127 36.4746 33.9289 38.9752 33.8136 40.3676C33.7833 40.7324 33.5531 40.9892 33.1289 41.1314C33.0989 41.2773 32.9812 41.723 32.6344 41.8831C32.4171 41.9833 32.157 41.9514 31.8603 41.788C31.807 42.0046 31.6755 42.194 31.4912 42.3197C31.2277 42.4911 30.8676 42.5086 30.4203 42.3724C30.2849 42.5454 30.0887 42.6603 29.8716 42.6937C29.8363 42.6985 29.8008 42.7009 29.7653 42.7009Z" fill="black"/>
<path d="M33.064 41.1483C33.0515 41.1484 33.0392 41.1453 33.0282 41.1393C33.0173 41.1333 33.008 41.1247 33.0012 41.1142L31.9859 39.52C31.9753 39.5034 31.9718 39.4832 31.9761 39.464C31.9803 39.4448 31.9921 39.4281 32.0087 39.4175C32.0253 39.4069 32.0454 39.4034 32.0647 39.4077C32.0839 39.4119 32.1006 39.4237 32.1112 39.4403L33.1265 41.0345C33.1336 41.0457 33.1376 41.0586 33.138 41.0719C33.1385 41.0852 33.1353 41.0983 33.1289 41.11C33.1225 41.1216 33.1132 41.1313 33.1017 41.1381C33.0903 41.1449 33.0773 41.1485 33.064 41.1485V41.1483ZM31.8082 41.7452C31.7962 41.7452 31.7844 41.7424 31.7737 41.7368C31.7631 41.7312 31.7539 41.7232 31.7471 41.7133L30.7852 40.3195C30.7742 40.3033 30.77 40.2834 30.7736 40.2641C30.7772 40.2448 30.7883 40.2278 30.8044 40.2166C30.8205 40.2055 30.8404 40.2012 30.8597 40.2047C30.879 40.2082 30.8961 40.2191 30.9074 40.2352L31.8692 41.629C31.8804 41.6452 31.8846 41.6652 31.8811 41.6845C31.8775 41.7038 31.8664 41.721 31.8502 41.7321C31.8379 41.7407 31.8232 41.7453 31.8082 41.7452ZM30.3921 42.3597C30.38 42.3598 30.3681 42.3569 30.3574 42.3512C30.3467 42.3456 30.3375 42.3374 30.3307 42.3274L29.636 41.3121C29.6305 41.304 29.6266 41.295 29.6246 41.2854C29.6226 41.2759 29.6225 41.266 29.6244 41.2565C29.6262 41.2469 29.6298 41.2378 29.6352 41.2296C29.6405 41.2214 29.6474 41.2144 29.6554 41.2089C29.6635 41.2034 29.6725 41.1996 29.6821 41.1976C29.6916 41.1956 29.7015 41.1955 29.711 41.1973C29.7206 41.1991 29.7298 41.2027 29.7379 41.2081C29.7461 41.2134 29.7531 41.2203 29.7586 41.2284L30.4533 42.2437C30.4609 42.2548 30.4653 42.2678 30.4661 42.2813C30.4669 42.2948 30.464 42.3082 30.4577 42.3201C30.4514 42.3321 30.442 42.3421 30.4304 42.349C30.4189 42.356 30.4056 42.3597 30.3921 42.3597ZM22.1004 41.4612C21.8261 41.4612 21.5165 41.4375 21.2286 41.4152C20.9502 41.3843 20.6699 41.3745 20.39 41.3858C19.9348 41.4152 19.4783 41.4153 19.0232 41.3861C19.0134 41.3856 19.0039 41.3831 18.9951 41.3788C18.9863 41.3745 18.9785 41.3685 18.972 41.3612C18.9656 41.3539 18.9606 41.3454 18.9574 41.3362C18.9543 41.327 18.9529 41.3172 18.9535 41.3075C18.955 41.2879 18.964 41.2697 18.9787 41.2567C18.9933 41.2437 19.0125 41.2369 19.0321 41.2378C19.4786 41.2661 19.9264 41.2662 20.3729 41.2381C20.6622 41.2257 20.952 41.2355 21.2398 41.2674C21.7375 41.3057 22.3014 41.3486 22.6058 41.2644C22.6154 41.2612 22.6255 41.26 22.6355 41.2608C22.6456 41.2616 22.6553 41.2645 22.6642 41.2692C22.6731 41.2739 22.681 41.2804 22.6873 41.2883C22.6936 41.2961 22.6983 41.3052 22.701 41.3149C22.7037 41.3246 22.7044 41.3347 22.703 41.3447C22.7017 41.3547 22.6983 41.3643 22.6931 41.3729C22.688 41.3816 22.6811 41.3891 22.6729 41.395C22.6647 41.4009 22.6555 41.405 22.6456 41.4072C22.4669 41.4484 22.2837 41.4666 22.1004 41.4612Z" fill="black"/>
<path d="M22.2428 66.5105V70.9681C22.2428 71.1488 22.3145 71.3221 22.4423 71.4499C22.5701 71.5777 22.7434 71.6495 22.9241 71.6495H33.1974V71.2628C33.1975 71.1209 33.1594 70.9817 33.0873 70.8595C33.0152 70.7374 32.9117 70.6368 32.7875 70.5682L28.5484 68.2295V66.5105H22.2428ZM17.2573 67.3792L17.5517 66.4642L11.446 64.8532L10.4159 68.0546C10.3884 68.1398 10.3781 68.2295 10.3853 68.3187C10.3926 68.4079 10.4173 68.4948 10.4582 68.5744C10.499 68.654 10.5551 68.7248 10.6234 68.7827C10.6916 68.8406 10.7705 68.8846 10.8557 68.912L20.6352 72.059L20.7536 71.6909C20.7971 71.5558 20.8035 71.4116 20.7723 71.2733C20.7411 71.1349 20.6733 71.0074 20.5761 70.9041L17.2573 67.3792Z" fill="#FED44A"/>
<path d="M24.9719 23.0491C24.8498 23.0431 24.7305 23.0106 24.6222 22.9538C24.6136 22.9493 24.6059 22.9432 24.5996 22.9357C24.5933 22.9282 24.5885 22.9196 24.5856 22.9103C24.5826 22.901 24.5815 22.8912 24.5823 22.8815C24.5832 22.8718 24.5859 22.8623 24.5904 22.8537C24.5949 22.845 24.601 22.8373 24.6085 22.831C24.6159 22.8247 24.6245 22.82 24.6338 22.817C24.6431 22.8141 24.6529 22.813 24.6626 22.8138C24.6724 22.8146 24.6818 22.8173 24.6905 22.8218C24.7865 22.8716 24.9941 22.9452 25.0902 22.8659C25.1633 22.8064 25.1518 22.6569 25.1345 22.4303C25.1155 22.218 25.0747 22.0083 25.0128 21.8044C24.9947 21.7441 24.9756 21.6842 24.9555 21.6245C24.9034 21.4672 24.8719 21.3723 24.9327 21.2796C24.997 21.1816 25.1296 21.1421 25.3389 21.1571C25.3585 21.1586 25.3767 21.1679 25.3895 21.1828C25.4023 21.1978 25.4087 21.2172 25.4072 21.2368C25.4065 21.2466 25.4039 21.2561 25.3996 21.2648C25.3952 21.2736 25.3892 21.2814 25.3817 21.2877C25.3743 21.2941 25.3657 21.2989 25.3564 21.302C25.3471 21.305 25.3373 21.3061 25.3276 21.3052C25.1336 21.2894 25.0747 21.3339 25.0568 21.3609C25.0362 21.3925 25.053 21.447 25.0963 21.5776C25.1134 21.6291 25.1334 21.6897 25.155 21.7623C25.22 21.9762 25.2628 22.1963 25.2826 22.419C25.3034 22.6921 25.3172 22.8725 25.1842 22.981C25.1236 23.0277 25.0485 23.0519 24.9719 23.0492V23.0491ZM24.4649 23.6624C24.3485 23.6663 24.2342 23.6308 24.1405 23.5615C24.0817 23.5111 24.0337 23.4494 23.9994 23.3799C23.9651 23.3105 23.9452 23.2348 23.941 23.1574C23.9404 23.1378 23.9475 23.1188 23.9609 23.1044C23.9743 23.0901 23.9928 23.0816 24.0124 23.0809C24.032 23.0805 24.051 23.0878 24.0653 23.1011C24.0796 23.1145 24.0883 23.1328 24.0893 23.1524C24.0966 23.2648 24.148 23.3698 24.2323 23.4445C24.2924 23.4822 24.3602 23.506 24.4307 23.5143C24.5012 23.5226 24.5726 23.5151 24.6399 23.4923C24.6587 23.4889 24.6781 23.4929 24.694 23.5034C24.7099 23.514 24.7212 23.5302 24.7255 23.5489C24.7297 23.5675 24.7266 23.587 24.7168 23.6034C24.707 23.6198 24.6912 23.6318 24.6728 23.6369C24.6047 23.6532 24.5349 23.6617 24.4649 23.6624ZM23.7257 21.6793C23.7116 21.6793 23.6979 21.6753 23.6861 21.6678C23.6743 21.6603 23.6648 21.6496 23.6588 21.6369C23.6528 21.6243 23.6505 21.6102 23.6522 21.5963C23.6538 21.5824 23.6594 21.5692 23.6682 21.5583C23.6716 21.5542 24.0111 21.1501 24.5878 21.4455C24.6053 21.4545 24.6186 21.4701 24.6246 21.4888C24.6307 21.5076 24.629 21.528 24.6201 21.5455C24.6111 21.563 24.5955 21.5763 24.5768 21.5823C24.558 21.5884 24.5376 21.5868 24.5201 21.5778C24.0533 21.3382 23.7936 21.6395 23.783 21.6526C23.776 21.661 23.7672 21.6677 23.7573 21.6724C23.7474 21.677 23.7366 21.6793 23.7257 21.6793Z" fill="black"/>
<path d="M24.3857 22.3106C24.4584 22.2983 24.503 22.2029 24.4853 22.0974C24.4675 21.9919 24.3942 21.9163 24.3214 21.9285C24.2486 21.9408 24.204 22.0362 24.2218 22.1417C24.2396 22.2472 24.3129 22.3228 24.3857 22.3106Z" fill="black"/>
<path d="M25.4608 22.0501C25.5336 22.0378 25.5782 21.9424 25.5604 21.8369C25.5427 21.7314 25.4693 21.6558 25.3965 21.668C25.3238 21.6803 25.2792 21.7757 25.2969 21.8812C25.3147 21.9867 25.3881 22.0623 25.4608 22.0501Z" fill="black"/>
<path d="M33.2693 28.8135C33.2346 28.8134 33.2001 28.8092 33.1664 28.801C33.0609 28.7757 32.9604 28.7329 32.8691 28.6743C32.7216 28.5747 32.6192 28.4211 32.5841 28.2466C32.5018 28.3529 32.3991 28.4418 32.282 28.5079C32.2203 28.5396 32.1528 28.5588 32.0836 28.5643C32.0661 28.5668 32.0487 28.5692 32.0318 28.5721C31.9782 28.5901 31.9209 28.5933 31.8656 28.5816C31.8104 28.5699 31.7593 28.5436 31.7177 28.5055C31.647 28.451 31.583 28.3885 31.5268 28.3192C31.4272 28.1587 31.3742 27.9737 31.3736 27.7848C31.3372 27.351 31.3548 26.9144 31.4261 26.485C31.4285 26.4707 31.4328 26.4505 31.4382 26.4262C31.4941 26.1676 31.4774 26.1047 31.4622 26.0903C31.4207 26.094 31.2027 26.1351 31.0105 26.1713C30.8457 26.2078 30.6791 26.2356 30.5113 26.2546V26.2549L30.5027 26.2547C30.4939 26.2549 30.4851 26.2542 30.4764 26.2528C30.4322 26.2503 30.3887 26.2481 30.346 26.2461C30.0381 26.2533 29.7326 26.1917 29.4516 26.0656L29.3918 26.035C29.2354 25.9603 29.0848 25.8738 28.9413 25.7765C28.7148 25.6142 28.4847 25.2553 28.6829 24.9657C28.9238 24.6139 29.3737 24.7367 29.6715 24.8183L29.7632 24.8443C29.8579 24.8745 29.9549 24.897 30.0533 24.9115C30.1875 24.9272 30.3226 24.9355 30.4577 24.9363C30.4937 24.9368 30.532 24.9382 30.5717 24.9399C30.7641 24.9474 30.9828 24.9561 31.1147 24.8538C31.1777 24.8028 31.2373 24.7478 31.2931 24.689L31.354 24.6282C31.4606 24.5245 31.5783 24.4328 31.7049 24.3547L31.7625 24.3181C31.9581 24.1922 32.2261 24.0206 32.4734 24.1318C32.5168 24.1534 32.5584 24.1785 32.5978 24.2067C32.7269 24.2931 32.7955 24.3268 32.8373 24.2833C32.8641 24.2516 32.8859 24.216 32.9019 24.1777C32.9146 24.1503 32.9286 24.1237 32.9441 24.0978C32.9983 24.0152 33.0691 23.9447 33.1519 23.8909C33.2361 23.8371 33.3317 23.8037 33.4311 23.7933C33.5304 23.7829 33.6309 23.7957 33.7244 23.8308C33.7795 23.8567 33.8311 23.8895 33.878 23.9284C33.9416 23.9759 34.0591 24.0637 34.0962 24.0383C34.1075 24.0243 34.1167 24.0088 34.1237 23.9923C34.1322 23.9741 34.142 23.9566 34.1531 23.9399C34.1773 23.9073 34.2041 23.8767 34.2332 23.8484C34.2475 23.8342 34.2614 23.8196 34.2748 23.8046L34.2941 23.7824C34.3541 23.6968 34.4412 23.6338 34.5413 23.6035L34.5638 23.5983C34.6654 23.5641 34.7748 23.5609 34.8782 23.5892C34.9708 23.6277 35.0558 23.6822 35.1295 23.7502C35.1657 23.7849 35.1973 23.8242 35.2235 23.867C35.2408 23.8929 35.2732 23.9412 35.2875 23.9448C35.2875 23.9448 35.2967 23.9445 35.3177 23.9275L35.3513 23.9007C35.4108 23.8373 35.4827 23.7869 35.5626 23.7525C35.6424 23.7181 35.7285 23.7005 35.8154 23.7007C35.9294 23.7139 36.0385 23.755 36.1328 23.8203C36.2272 23.8855 36.3041 23.9731 36.3566 24.0751C36.4462 24.2548 36.8325 25.4391 36.8211 25.8694C36.8143 26.1265 36.6134 27.4503 36.4899 27.675C36.4645 27.7389 36.4224 27.7948 36.3682 27.837C36.3139 27.8793 36.2494 27.9063 36.1812 27.9153C35.9769 27.9284 35.7948 27.6977 35.6939 27.5518C35.6878 27.572 35.6822 27.5924 35.677 27.6129C35.6683 27.6508 35.6565 27.6878 35.6416 27.7237C35.5962 27.8295 35.542 27.9314 35.4798 28.0283C35.3588 28.1821 35.2044 28.3063 35.0283 28.3916C34.9384 28.4504 34.8351 28.4855 34.728 28.4936C34.6208 28.5018 34.5134 28.4827 34.4157 28.4381C34.3042 28.3799 34.2146 28.2871 34.1604 28.1736C34.1105 28.284 34.0416 28.3849 33.9569 28.4715C33.831 28.6006 33.6769 28.6988 33.5066 28.7583C33.4315 28.7909 33.351 28.8096 33.2691 28.8135H33.2693ZM32.6231 27.9603C32.6271 27.9603 32.6311 27.9606 32.635 27.9613C32.6512 27.9639 32.666 27.9718 32.6772 27.9837C32.6884 27.9957 32.6953 28.011 32.6969 28.0272C32.7222 28.2863 32.8045 28.457 32.949 28.5493C33.0262 28.5988 33.1112 28.6351 33.2004 28.6568C33.2876 28.6719 33.3773 28.6586 33.4563 28.6189C33.6061 28.5663 33.7417 28.4798 33.8524 28.366C33.9807 28.2221 34.0724 28.0493 34.1195 27.8623L34.121 27.8579C34.1273 27.8395 34.1405 27.8244 34.1578 27.8157C34.1751 27.807 34.1952 27.8054 34.2136 27.8112C34.2321 27.8171 34.2476 27.8299 34.2567 27.847C34.2658 27.8641 34.2679 27.8841 34.2625 27.9027L34.2615 27.906C34.2547 27.9862 34.2716 28.0667 34.3102 28.1374C34.3487 28.2081 34.4072 28.2659 34.4783 28.3036C34.5561 28.3381 34.6414 28.3521 34.7261 28.3442C34.8108 28.3364 34.8921 28.307 34.9622 28.2588C35.1164 28.1852 35.2517 28.0774 35.358 27.9437C35.4151 27.854 35.4649 27.7597 35.5067 27.6619C35.5179 27.6339 35.5268 27.605 35.5334 27.5755C35.5445 27.4898 35.585 27.4105 35.6482 27.3514C35.6641 27.3406 35.6836 27.3364 35.7025 27.3397C35.7215 27.3431 35.7384 27.3536 35.7497 27.3692C35.7559 27.378 35.7648 27.391 35.7758 27.4077C35.8352 27.497 36.0145 27.7672 36.1696 27.7672L36.1751 27.767C36.2395 27.7643 36.3017 27.7091 36.3599 27.6034C36.4549 27.4308 36.665 26.1554 36.6727 25.8654C36.6834 25.4645 36.3077 24.3098 36.2238 24.1413C36.1823 24.0612 36.1218 23.9926 36.0475 23.9415C35.9732 23.8903 35.8875 23.8582 35.7979 23.848C35.6629 23.8562 35.5363 23.9164 35.4446 24.0159L35.4105 24.0436C35.3909 24.0614 35.3678 24.0748 35.3427 24.0831C35.3176 24.0914 35.291 24.0942 35.2647 24.0916C35.187 24.0795 35.1408 24.0104 35.1 23.9495C35.0807 23.9175 35.0576 23.888 35.0313 23.8615C34.9703 23.8052 34.9002 23.7598 34.8239 23.7273C34.7484 23.7123 34.6703 23.7176 34.5975 23.7427L34.5742 23.7481C34.5056 23.7727 34.4468 23.8188 34.4065 23.8794L34.3866 23.9024C34.3713 23.9198 34.3554 23.9361 34.3391 23.9525C34.3156 23.975 34.294 23.9994 34.2744 24.0254C34.2677 24.0358 34.2618 24.0468 34.2567 24.0582C34.2407 24.0975 34.2151 24.1322 34.1822 24.1591C34.0574 24.2483 33.9086 24.1368 33.7893 24.0473C33.7528 24.0174 33.7133 23.9912 33.6714 23.9694C33.6006 23.9435 33.5248 23.9338 33.4497 23.9412C33.3746 23.9486 33.3021 23.9729 33.2377 24.0121C33.1712 24.0545 33.1142 24.1102 33.0704 24.1757C33.0576 24.1973 33.046 24.2195 33.0355 24.2422C33.013 24.2948 32.9823 24.3434 32.9444 24.3862C32.8085 24.5278 32.6319 24.4085 32.5151 24.3299C32.4824 24.3065 32.448 24.2855 32.4122 24.2672C32.2385 24.1886 32.019 24.3295 31.8428 24.4429L31.7839 24.4806C31.6662 24.553 31.5569 24.6381 31.4578 24.7343L31.3984 24.7937C31.338 24.857 31.2736 24.9164 31.2054 24.9713C31.0309 25.1063 30.773 25.0962 30.566 25.0882C30.5275 25.0867 30.4905 25.0852 30.4558 25.0848C30.3153 25.0839 30.1749 25.0752 30.0353 25.0588C29.9291 25.0436 29.8243 25.0195 29.7221 24.9869L29.6336 24.9618C29.3443 24.8827 28.9864 24.7848 28.8053 25.0494C28.6654 25.2543 28.8554 25.5323 29.0277 25.6559C29.1652 25.7487 29.3094 25.8312 29.4591 25.9026L29.5193 25.9334C29.7816 26.0497 30.0665 26.1059 30.3532 26.0978C30.4079 26.1005 30.4634 26.1033 30.5204 26.1067C30.5239 26.1069 30.5275 26.1074 30.5309 26.1082C30.6045 26.0971 30.8119 26.0578 30.9829 26.0255C31.2427 25.9766 31.4033 25.9466 31.4431 25.943C31.4672 25.9398 31.4918 25.9426 31.5146 25.9512C31.5374 25.9598 31.5577 25.9739 31.5737 25.9923C31.6553 26.0851 31.6231 26.273 31.5832 26.4577C31.5786 26.4793 31.5746 26.4971 31.5725 26.5096C31.5032 26.9266 31.4861 27.3506 31.5214 27.7718C31.5208 27.9323 31.5632 28.09 31.6442 28.2285C31.6933 28.2885 31.7492 28.3427 31.8108 28.3899C31.8829 28.448 31.9017 28.4445 32.0058 28.4261C32.0245 28.4228 32.0436 28.42 32.0628 28.4173C32.1128 28.4139 32.1616 28.4011 32.2069 28.3798C32.3607 28.2957 32.4831 28.1639 32.5555 28.0042C32.5613 27.9911 32.5708 27.98 32.5828 27.9722C32.5948 27.9645 32.6088 27.9603 32.6231 27.9603Z" fill="black"/>
<path d="M32.7995 27.6045C32.7876 27.6045 32.7759 27.6016 32.7654 27.5962C32.7548 27.5907 32.7458 27.5828 32.7389 27.5731C32.7321 27.5634 32.7277 27.5522 32.7261 27.5404C32.7245 27.5286 32.7257 27.5167 32.7297 27.5055L32.7432 27.4669C32.8036 27.3162 32.8465 27.1591 32.871 26.9987C32.8835 26.8978 32.8927 26.7961 32.9019 26.6944C32.9127 26.5752 32.9234 26.4559 32.9393 26.3376C32.9699 26.1321 32.9807 25.9241 32.9717 25.7165C32.9417 25.4369 32.8766 25.1622 32.778 24.8989C32.7553 24.8298 32.7332 24.7605 32.7118 24.691C32.7087 24.6816 32.7076 24.6717 32.7084 24.6619C32.7093 24.6521 32.712 24.6426 32.7166 24.6338C32.7211 24.6251 32.7274 24.6174 32.7349 24.6111C32.7425 24.6048 32.7512 24.6001 32.7606 24.5972C32.7701 24.5943 32.7799 24.5933 32.7897 24.5943C32.7995 24.5953 32.809 24.5982 32.8177 24.6029C32.8263 24.6075 32.834 24.6139 32.8401 24.6216C32.8463 24.6292 32.8509 24.638 32.8537 24.6475C32.874 24.7144 32.8964 24.783 32.9191 24.853C33.0221 25.1284 33.0895 25.4157 33.1198 25.708C33.1295 25.925 33.1183 26.1424 33.0864 26.3572C33.0708 26.4735 33.0603 26.5908 33.0496 26.7081C33.0403 26.8111 33.0309 26.9144 33.0184 27.0168C32.9926 27.1881 32.9472 27.3558 32.8831 27.5166L32.8695 27.5551C32.8644 27.5695 32.8549 27.5821 32.8424 27.5909C32.8298 27.5998 32.8148 27.6045 32.7995 27.6045ZM34.1231 27.5564C34.1073 27.5564 34.0918 27.5513 34.0792 27.5418C34.0713 27.5361 34.0647 27.5288 34.0596 27.5204C34.0546 27.5121 34.0512 27.5028 34.0497 27.4932C34.0483 27.4835 34.0487 27.4737 34.0511 27.4642C34.0534 27.4547 34.0576 27.4458 34.0634 27.4379C34.0926 27.3896 34.1132 27.3366 34.1243 27.2812C34.1302 27.2597 34.136 27.2381 34.1424 27.2177C34.1518 27.1874 34.1617 27.1572 34.1718 27.127C34.1978 27.0534 34.2195 26.9785 34.2367 26.9024C34.2685 26.7229 34.2852 26.541 34.2867 26.3586L34.288 26.3141C34.2971 26.1369 34.2949 25.9592 34.2815 25.7823C34.2394 25.4413 34.1757 25.1034 34.091 24.7705C34.0652 24.6592 34.0397 24.5489 34.0161 24.4402C34.0119 24.421 34.0156 24.4009 34.0262 24.3843C34.0369 24.3677 34.0537 24.3561 34.0729 24.3519C34.0922 24.3477 34.1123 24.3514 34.1289 24.3621C34.1454 24.3727 34.1571 24.3895 34.1613 24.4088C34.1846 24.5167 34.2101 24.6264 34.2358 24.737C34.322 25.0761 34.3866 25.4203 34.4292 25.7676C34.4433 25.9508 34.4458 26.1347 34.4365 26.3183L34.435 26.3631C34.4334 26.5539 34.4157 26.7442 34.3823 26.9321C34.364 27.0139 34.3408 27.0945 34.3128 27.1736C34.303 27.2033 34.2932 27.2325 34.2842 27.2617C34.2782 27.2804 34.273 27.3 34.2678 27.3199C34.2525 27.3934 34.2237 27.4633 34.1829 27.5263C34.176 27.5356 34.167 27.5433 34.1566 27.5485C34.1462 27.5537 34.1347 27.5564 34.1231 27.5564ZM35.5986 27.2321C35.5922 27.2321 35.5858 27.2312 35.5796 27.2295C35.5606 27.2245 35.5443 27.2122 35.5344 27.1952C35.5245 27.1782 35.5218 27.158 35.5267 27.139C35.6308 26.7531 35.6673 26.3522 35.6343 25.9539C35.5707 25.4607 35.4448 24.9776 35.2597 24.5161L35.1988 24.3426C35.1956 24.3334 35.1943 24.3236 35.1949 24.3139C35.1954 24.3041 35.1979 24.2946 35.2022 24.2858C35.2064 24.2771 35.2124 24.2692 35.2196 24.2627C35.2269 24.2563 35.2354 24.2513 35.2446 24.2481C35.2538 24.2449 35.2636 24.2435 35.2733 24.2441C35.283 24.2447 35.2926 24.2472 35.3013 24.2514C35.3101 24.2557 35.318 24.2616 35.3244 24.2689C35.3309 24.2762 35.3359 24.2847 35.3391 24.2939L35.3997 24.4668C35.5884 24.9402 35.7169 25.4354 35.7822 25.9408C35.8166 26.3561 35.7787 26.7743 35.6703 27.1767C35.6661 27.1925 35.6568 27.2066 35.6438 27.2166C35.6309 27.2266 35.615 27.232 35.5986 27.2321ZM33.0639 38.7587C33.0453 38.7587 33.0273 38.7517 33.0136 38.7391C33 38.7265 32.9915 38.7092 32.9899 38.6906C32.9884 38.6721 32.9939 38.6537 33.0053 38.639C33.0167 38.6243 33.0332 38.6144 33.0515 38.6113L44.0776 36.7555C44.1746 36.7391 44.2612 36.6849 44.3182 36.6047C44.3753 36.5246 44.3983 36.4251 44.3821 36.328L42.4221 24.6767C42.4057 24.5797 42.3514 24.4932 42.2713 24.4361C42.1911 24.3791 42.0916 24.3562 41.9946 24.3724L36.6491 25.2722C36.6394 25.274 36.6294 25.2739 36.6198 25.2718C36.6102 25.2697 36.6011 25.2657 36.593 25.2601C36.585 25.2544 36.5781 25.2472 36.5728 25.2389C36.5676 25.2306 36.564 25.2213 36.5624 25.2116C36.5608 25.2019 36.5611 25.1919 36.5633 25.1823C36.5656 25.1728 36.5697 25.1637 36.5755 25.1557C36.5812 25.1478 36.5885 25.141 36.5969 25.1359C36.6054 25.1308 36.6147 25.1274 36.6244 25.1259L41.9698 24.2259C42.1057 24.2032 42.245 24.2354 42.3572 24.3153C42.4694 24.3952 42.5454 24.5163 42.5685 24.6521L44.5284 36.3034C44.5513 36.4392 44.5192 36.5786 44.4394 36.6909C44.3595 36.8032 44.2383 36.8791 44.1024 36.902L33.0762 38.7576C33.0721 38.7583 33.068 38.7587 33.0639 38.7587ZM24.9948 27.2324C24.9763 27.2321 24.9586 27.225 24.9451 27.2125C24.9316 27.1999 24.9232 27.1827 24.9217 27.1643C24.9202 27.1459 24.9255 27.1276 24.9368 27.113C24.948 27.0983 24.9643 27.0884 24.9825 27.0851L31.5167 25.9852C31.5361 25.9819 31.5561 25.9865 31.5721 25.9979C31.5881 26.0094 31.599 26.0267 31.6023 26.0461C31.6055 26.0655 31.6009 26.0855 31.5895 26.1015C31.5781 26.1176 31.5608 26.1284 31.5413 26.1317L25.0071 27.2316C25.003 27.2323 24.9989 27.2324 24.9948 27.2324Z" fill="black"/>
<path d="M70.2712 30.7577H43.5079C43.4882 30.7577 43.4694 30.7499 43.4554 30.736C43.4415 30.7221 43.4337 30.7032 43.4337 30.6835C43.4337 30.6638 43.4415 30.6449 43.4554 30.631C43.4694 30.6171 43.4882 30.6093 43.5079 30.6093H70.2712C70.4089 30.6091 70.541 30.5543 70.6384 30.4569C70.7358 30.3596 70.7906 30.2275 70.7907 30.0898V4.53476C70.7906 4.39702 70.7358 4.26497 70.6384 4.16757C70.541 4.07017 70.4089 4.01539 70.2712 4.01523H16.4774C16.3397 4.01539 16.2077 4.07017 16.1103 4.16757C16.0129 4.26497 15.9581 4.39702 15.9579 4.53476V30.0898C15.9581 30.2275 16.0129 30.3596 16.1103 30.4569C16.2077 30.5543 16.3397 30.6091 16.4774 30.6093H18.5007C18.5203 30.6093 18.5392 30.6171 18.5531 30.631C18.5671 30.6449 18.5749 30.6638 18.5749 30.6835C18.5749 30.7032 18.5671 30.7221 18.5531 30.736C18.5392 30.7499 18.5203 30.7577 18.5007 30.7577H16.4774C16.3004 30.7575 16.1306 30.6871 16.0053 30.5619C15.8801 30.4366 15.8097 30.2669 15.8095 30.0898V4.53476C15.8097 4.35766 15.8801 4.18788 16.0053 4.06265C16.1306 3.93743 16.3004 3.86699 16.4774 3.86679H70.2712C70.4483 3.86699 70.6181 3.93743 70.7433 4.06265C70.8685 4.18788 70.939 4.35766 70.9392 4.53476V30.0898C70.939 30.2669 70.8685 30.4366 70.7433 30.5619C70.6181 30.6871 70.4483 30.7575 70.2712 30.7577Z" fill="black"/>
<path d="M64.357 25.0922H50.3623C50.0344 25.0922 49.7686 25.358 49.7686 25.6859V36.6117C49.7686 36.9396 50.0344 37.2054 50.3623 37.2054H64.357C64.6849 37.2054 64.9507 36.9396 64.9507 36.6117V25.6859C64.9507 25.358 64.6849 25.0922 64.357 25.0922Z" fill="#FED44A"/>
<path d="M47.6731 19.7453H46.9309C46.9112 19.7453 46.8923 19.7375 46.8784 19.7236C46.8645 19.7097 46.8567 19.6908 46.8567 19.6711C46.8567 19.6514 46.8645 19.6325 46.8784 19.6186C46.8923 19.6047 46.9112 19.5969 46.9309 19.5969H47.6731C47.6928 19.5969 47.7116 19.6047 47.7256 19.6186C47.7395 19.6325 47.7473 19.6514 47.7473 19.6711C47.7473 19.6908 47.7395 19.7097 47.7256 19.7236C47.7116 19.7375 47.6928 19.7453 47.6731 19.7453ZM46.1887 19.7453H45.4465C45.4268 19.7453 45.4079 19.7375 45.394 19.7236C45.3801 19.7097 45.3723 19.6908 45.3723 19.6711C45.3723 19.6514 45.3801 19.6325 45.394 19.6186C45.4079 19.6047 45.4268 19.5969 45.4465 19.5969H46.1887C46.2084 19.5969 46.2273 19.6047 46.2412 19.6186C46.2551 19.6325 46.2629 19.6514 46.2629 19.6711C46.2629 19.6908 46.2551 19.7097 46.2412 19.7236C46.2273 19.7375 46.2084 19.7453 46.1887 19.7453ZM44.7043 19.7453H43.9621C43.9424 19.7453 43.9236 19.7375 43.9097 19.7236C43.8957 19.7097 43.8879 19.6908 43.8879 19.6711C43.8879 19.6514 43.8957 19.6325 43.9097 19.6186C43.9236 19.6047 43.9424 19.5969 43.9621 19.5969H44.7043C44.724 19.5969 44.7429 19.6047 44.7568 19.6186C44.7707 19.6325 44.7785 19.6514 44.7785 19.6711C44.7785 19.6908 44.7707 19.7097 44.7568 19.7236C44.7429 19.7375 44.724 19.7453 44.7043 19.7453ZM43.2199 19.7453H42.4778C42.4581 19.7453 42.4392 19.7375 42.4253 19.7236C42.4114 19.7097 42.4035 19.6908 42.4035 19.6711C42.4035 19.6514 42.4114 19.6325 42.4253 19.6186C42.4392 19.6047 42.4581 19.5969 42.4778 19.5969H43.2199C43.2396 19.5969 43.2585 19.6047 43.2724 19.6186C43.2863 19.6325 43.2942 19.6514 43.2942 19.6711C43.2942 19.6908 43.2863 19.7097 43.2724 19.7236C43.2585 19.7375 43.2396 19.7453 43.2199 19.7453ZM41.7356 19.7453H40.9934C40.9737 19.7453 40.9548 19.7375 40.9409 19.7236C40.927 19.7097 40.9192 19.6908 40.9192 19.6711C40.9192 19.6514 40.927 19.6325 40.9409 19.6186C40.9548 19.6047 40.9737 19.5969 40.9934 19.5969H41.7356C41.7553 19.5969 41.7741 19.6047 41.7881 19.6186C41.802 19.6325 41.8098 19.6514 41.8098 19.6711C41.8098 19.6908 41.802 19.7097 41.7881 19.7236C41.7741 19.7375 41.7553 19.7453 41.7356 19.7453ZM40.2512 19.7453H39.509C39.4893 19.7453 39.4704 19.7375 39.4565 19.7236C39.4426 19.7097 39.4348 19.6908 39.4348 19.6711C39.4348 19.6514 39.4426 19.6325 39.4565 19.6186C39.4704 19.6047 39.4893 19.5969 39.509 19.5969H40.2512C40.2709 19.5969 40.2898 19.6047 40.3037 19.6186C40.3176 19.6325 40.3254 19.6514 40.3254 19.6711C40.3254 19.6908 40.3176 19.7097 40.3037 19.7236C40.2898 19.7375 40.2709 19.7453 40.2512 19.7453ZM38.7668 19.7453H38.0246C38.0049 19.7453 37.9861 19.7375 37.9722 19.7236C37.9582 19.7097 37.9504 19.6908 37.9504 19.6711C37.9504 19.6514 37.9582 19.6325 37.9722 19.6186C37.9861 19.6047 38.0049 19.5969 38.0246 19.5969H38.7668C38.7865 19.5969 38.8054 19.6047 38.8193 19.6186C38.8332 19.6325 38.841 19.6514 38.841 19.6711C38.841 19.6908 38.8332 19.7097 38.8193 19.7236C38.8054 19.7375 38.7865 19.7453 38.7668 19.7453ZM37.2824 19.7453H36.5403C36.5206 19.7453 36.5017 19.7375 36.4878 19.7236C36.4739 19.7097 36.466 19.6908 36.466 19.6711C36.466 19.6514 36.4739 19.6325 36.4878 19.6186C36.5017 19.6047 36.5206 19.5969 36.5403 19.5969H37.2824C37.3021 19.5969 37.321 19.6047 37.3349 19.6186C37.3488 19.6325 37.3567 19.6514 37.3567 19.6711C37.3567 19.6908 37.3488 19.7097 37.3349 19.7236C37.321 19.7375 37.3021 19.7453 37.2824 19.7453ZM35.7981 19.7453H35.0559C35.0362 19.7453 35.0173 19.7375 35.0034 19.7236C34.9895 19.7097 34.9817 19.6908 34.9817 19.6711C34.9817 19.6514 34.9895 19.6325 35.0034 19.6186C35.0173 19.6047 35.0362 19.5969 35.0559 19.5969H35.7981C35.8178 19.5969 35.8366 19.6047 35.8506 19.6186C35.8645 19.6325 35.8723 19.6514 35.8723 19.6711C35.8723 19.6908 35.8645 19.7097 35.8506 19.7236C35.8366 19.7375 35.8178 19.7453 35.7981 19.7453ZM34.3137 19.7453H33.5715C33.5518 19.7453 33.5329 19.7375 33.519 19.7236C33.5051 19.7097 33.4973 19.6908 33.4973 19.6711C33.4973 19.6514 33.5051 19.6325 33.519 19.6186C33.5329 19.6047 33.5518 19.5969 33.5715 19.5969H34.3137C34.3334 19.5969 34.3523 19.6047 34.3662 19.6186C34.3801 19.6325 34.3879 19.6514 34.3879 19.6711C34.3879 19.6908 34.3801 19.7097 34.3662 19.7236C34.3523 19.7375 34.3334 19.7453 34.3137 19.7453ZM32.8293 19.7453H32.0871C32.0674 19.7453 32.0486 19.7375 32.0347 19.7236C32.0207 19.7097 32.0129 19.6908 32.0129 19.6711C32.0129 19.6514 32.0207 19.6325 32.0347 19.6186C32.0486 19.6047 32.0674 19.5969 32.0871 19.5969H32.8293C32.849 19.5969 32.8679 19.6047 32.8818 19.6186C32.8957 19.6325 32.9035 19.6514 32.9035 19.6711C32.9035 19.6908 32.8957 19.7097 32.8818 19.7236C32.8679 19.7375 32.849 19.7453 32.8293 19.7453ZM31.3449 19.7453H30.6028C30.5831 19.7453 30.5642 19.7375 30.5503 19.7236C30.5364 19.7097 30.5285 19.6908 30.5285 19.6711C30.5285 19.6514 30.5364 19.6325 30.5503 19.6186C30.5642 19.6047 30.5831 19.5969 30.6028 19.5969H31.3449C31.3646 19.5969 31.3835 19.6047 31.3974 19.6186C31.4113 19.6325 31.4192 19.6514 31.4192 19.6711C31.4192 19.6908 31.4113 19.7097 31.3974 19.7236C31.3835 19.7375 31.3646 19.7453 31.3449 19.7453ZM47.846 19.7199C47.8282 19.72 47.8109 19.7136 47.7974 19.702C47.7838 19.6903 47.775 19.6742 47.7723 19.6566C47.7697 19.6389 47.7736 19.6209 47.7831 19.6059C47.7927 19.5908 47.8074 19.5797 47.8245 19.5746C47.9289 19.5429 48.0207 19.4791 48.0868 19.3923C48.1528 19.3054 48.1898 19.1999 48.1925 19.0909C48.193 19.0715 48.201 19.0531 48.2149 19.0396C48.2287 19.0261 48.2473 19.0186 48.2667 19.0186H48.2686C48.2784 19.0188 48.288 19.021 48.2969 19.0249C48.3058 19.0289 48.3138 19.0346 48.3205 19.0417C48.3272 19.0487 48.3325 19.0571 48.336 19.0662C48.3395 19.0753 48.3411 19.085 48.3409 19.0947C48.3375 19.235 48.2899 19.3706 48.2049 19.4823C48.12 19.5939 48.0019 19.676 47.8677 19.7167C47.8606 19.7188 47.8533 19.7199 47.846 19.7199ZM29.8638 19.7155C29.8559 19.7155 29.848 19.7142 29.8405 19.7116C29.7072 19.6677 29.5912 19.5828 29.509 19.4691C29.4268 19.3553 29.3825 19.2186 29.3826 19.0782C29.3826 19.0585 29.3904 19.0397 29.4043 19.0258C29.4183 19.0118 29.4371 19.004 29.4568 19.004C29.4765 19.004 29.4953 19.0118 29.5092 19.0256C29.5231 19.0395 29.531 19.0583 29.531 19.0779C29.531 19.1871 29.5654 19.2936 29.6293 19.3821C29.6933 19.4705 29.7836 19.5366 29.8873 19.5707C29.904 19.5763 29.9181 19.5877 29.9272 19.6028C29.9363 19.6178 29.9397 19.6356 29.9369 19.653C29.9341 19.6704 29.9252 19.6862 29.9118 19.6976C29.8984 19.709 29.8814 19.7153 29.8638 19.7153V19.7155ZM48.2668 18.4248C48.2471 18.4248 48.2283 18.417 48.2143 18.4031C48.2004 18.3892 48.1926 18.3703 48.1926 18.3506V17.6084C48.1926 17.5887 48.2004 17.5698 48.2143 17.5559C48.2283 17.542 48.2471 17.5342 48.2668 17.5342C48.2865 17.5342 48.3054 17.542 48.3193 17.5559C48.3332 17.5698 48.341 17.5887 48.341 17.6084V18.3506C48.341 18.3703 48.3332 18.3892 48.3193 18.4031C48.3054 18.417 48.2865 18.4248 48.2668 18.4248ZM29.4568 18.4103C29.4371 18.4103 29.4183 18.4024 29.4043 18.3885C29.3904 18.3746 29.3826 18.3557 29.3826 18.336V17.5939C29.3826 17.5742 29.3904 17.5553 29.4043 17.5414C29.4183 17.5275 29.4371 17.5196 29.4568 17.5196C29.4765 17.5196 29.4954 17.5275 29.5093 17.5414C29.5232 17.5553 29.531 17.5742 29.531 17.5939V18.336C29.531 18.3557 29.5232 18.3746 29.5093 18.3885C29.4954 18.4024 29.4765 18.4103 29.4568 18.4103ZM48.2668 16.9404C48.2471 16.9404 48.2283 16.9326 48.2143 16.9187C48.2004 16.9048 48.1926 16.8859 48.1926 16.8662V16.124C48.1926 16.1043 48.2004 16.0855 48.2143 16.0715C48.2283 16.0576 48.2471 16.0498 48.2668 16.0498C48.2865 16.0498 48.3054 16.0576 48.3193 16.0715C48.3332 16.0855 48.341 16.1043 48.341 16.124V16.8662C48.341 16.8859 48.3332 16.9048 48.3193 16.9187C48.3054 16.9326 48.2865 16.9404 48.2668 16.9404ZM29.4568 16.9259C29.4371 16.9259 29.4183 16.9181 29.4043 16.9042C29.3904 16.8902 29.3826 16.8714 29.3826 16.8517V16.1095C29.3826 16.0898 29.3904 16.0709 29.4043 16.057C29.4183 16.0431 29.4371 16.0353 29.4568 16.0353C29.4765 16.0353 29.4954 16.0431 29.5093 16.057C29.5232 16.0709 29.531 16.0898 29.531 16.1095V16.8517C29.531 16.8714 29.5232 16.8902 29.5093 16.9042C29.4954 16.9181 29.4765 16.9259 29.4568 16.9259ZM48.2668 15.4561C48.2471 15.4561 48.2283 15.4482 48.2143 15.4343C48.2004 15.4204 48.1926 15.4015 48.1926 15.3818V14.6397C48.1926 14.62 48.2004 14.6011 48.2143 14.5872C48.2283 14.5733 48.2471 14.5654 48.2668 14.5654C48.2865 14.5654 48.3054 14.5733 48.3193 14.5872C48.3332 14.6011 48.341 14.62 48.341 14.6397V15.3818C48.341 15.4015 48.3332 15.4204 48.3193 15.4343C48.3054 15.4482 48.2865 15.4561 48.2668 15.4561ZM29.4568 15.4415C29.4371 15.4415 29.4183 15.4337 29.4043 15.4198C29.3904 15.4059 29.3826 15.387 29.3826 15.3673V14.6251C29.3826 14.6054 29.3904 14.5865 29.4043 14.5726C29.4183 14.5587 29.4371 14.5509 29.4568 14.5509C29.4765 14.5509 29.4954 14.5587 29.5093 14.5726C29.5232 14.5865 29.531 14.6054 29.531 14.6251V15.3673C29.531 15.387 29.5232 15.4059 29.5093 15.4198C29.4954 15.4337 29.4765 15.4415 29.4568 15.4415ZM48.2668 13.9717C48.2471 13.9717 48.2283 13.9639 48.2143 13.9499C48.2004 13.936 48.1926 13.9172 48.1926 13.8975V13.1553C48.1926 13.1356 48.2004 13.1167 48.2143 13.1028C48.2283 13.0889 48.2471 13.0811 48.2668 13.0811C48.2865 13.0811 48.3054 13.0889 48.3193 13.1028C48.3332 13.1167 48.341 13.1356 48.341 13.1553V13.8975C48.341 13.9172 48.3332 13.936 48.3193 13.9499C48.3054 13.9639 48.2865 13.9717 48.2668 13.9717ZM29.4568 13.9571C29.4371 13.9571 29.4183 13.9493 29.4043 13.9354C29.3904 13.9215 29.3826 13.9026 29.3826 13.8829V13.1407C29.3826 13.121 29.3904 13.1022 29.4043 13.0883C29.4183 13.0743 29.4371 13.0665 29.4568 13.0665C29.4765 13.0665 29.4954 13.0743 29.5093 13.0883C29.5232 13.1022 29.531 13.121 29.531 13.1407V13.8829C29.531 13.9026 29.5232 13.9215 29.5093 13.9354C29.4954 13.9493 29.4765 13.9571 29.4568 13.9571ZM48.2668 12.4873C48.2471 12.4873 48.2283 12.4795 48.2143 12.4656C48.2004 12.4517 48.1926 12.4328 48.1926 12.4131V11.6709C48.1926 11.6512 48.2004 11.6323 48.2143 11.6184C48.2283 11.6045 48.2471 11.5967 48.2668 11.5967C48.2865 11.5967 48.3054 11.6045 48.3193 11.6184C48.3332 11.6323 48.341 11.6512 48.341 11.6709V12.4131C48.341 12.4328 48.3332 12.4517 48.3193 12.4656C48.3054 12.4795 48.2865 12.4873 48.2668 12.4873ZM29.4568 12.4728C29.4371 12.4728 29.4183 12.4649 29.4043 12.451C29.3904 12.4371 29.3826 12.4182 29.3826 12.3985V11.6564C29.3826 11.6367 29.3904 11.6178 29.4043 11.6039C29.4183 11.59 29.4371 11.5821 29.4568 11.5821C29.4765 11.5821 29.4954 11.59 29.5093 11.6039C29.5232 11.6178 29.531 11.6367 29.531 11.6564V12.3985C29.531 12.4182 29.5232 12.4371 29.5093 12.451C29.4954 12.4649 29.4765 12.4728 29.4568 12.4728ZM48.2668 11.0029C48.2471 11.0029 48.2283 10.9951 48.2143 10.9812C48.2004 10.9673 48.1926 10.9484 48.1926 10.9287V10.6462C48.1929 10.5104 48.1398 10.3799 48.0446 10.283C48.0376 10.2761 48.0321 10.2678 48.0284 10.2587C48.0246 10.2497 48.0227 10.2399 48.0228 10.2301C48.0228 10.2203 48.0248 10.2105 48.0287 10.2015C48.0325 10.1924 48.0381 10.1842 48.0451 10.1774C48.0521 10.1705 48.0605 10.1651 48.0696 10.1615C48.0787 10.1578 48.0885 10.1561 48.0983 10.1562C48.1082 10.1564 48.1178 10.1585 48.1268 10.1625C48.1358 10.1664 48.144 10.1721 48.1507 10.1793C48.2732 10.3038 48.3415 10.4716 48.341 10.6462V10.9287C48.341 10.9484 48.3332 10.9673 48.3193 10.9812C48.3054 10.9951 48.2865 11.0029 48.2668 11.0029ZM29.4568 10.9884C29.4371 10.9884 29.4183 10.9806 29.4043 10.9667C29.3904 10.9527 29.3826 10.9339 29.3826 10.9142V10.6462C29.3823 10.557 29.4001 10.4687 29.4347 10.3864C29.4694 10.3042 29.5204 10.2299 29.5845 10.1678C29.5986 10.1543 29.6175 10.147 29.6371 10.1474C29.6566 10.1477 29.6753 10.1558 29.6889 10.1698C29.7025 10.1839 29.7101 10.2027 29.7099 10.2222C29.7097 10.2418 29.7018 10.2605 29.6879 10.2743C29.6381 10.3225 29.5985 10.3803 29.5715 10.4442C29.5446 10.5082 29.5308 10.5769 29.531 10.6462V10.9142C29.531 10.9339 29.5232 10.9527 29.5093 10.9667C29.4954 10.9806 29.4765 10.9884 29.4568 10.9884ZM47.4041 10.1267H46.6619C46.6422 10.1267 46.6234 10.1189 46.6094 10.105C46.5955 10.0911 46.5877 10.0722 46.5877 10.0525C46.5877 10.0328 46.5955 10.0139 46.6094 10C46.6234 9.98609 46.6422 9.97827 46.6619 9.97827H47.4041C47.4238 9.97827 47.4427 9.98609 47.4566 10C47.4705 10.0139 47.4783 10.0328 47.4783 10.0525C47.4783 10.0722 47.4705 10.0911 47.4566 10.105C47.4427 10.1189 47.4238 10.1267 47.4041 10.1267ZM45.9197 10.1267H45.1775C45.1579 10.1267 45.139 10.1189 45.1251 10.105C45.1111 10.0911 45.1033 10.0722 45.1033 10.0525C45.1033 10.0328 45.1111 10.0139 45.1251 10C45.139 9.98609 45.1579 9.97827 45.1775 9.97827H45.9197C45.9394 9.97827 45.9583 9.98609 45.9722 10C45.9861 10.0139 45.9939 10.0328 45.9939 10.0525C45.9939 10.0722 45.9861 10.0911 45.9722 10.105C45.9583 10.1189 45.9394 10.1267 45.9197 10.1267ZM44.4354 10.1267H43.6932C43.6735 10.1267 43.6546 10.1189 43.6407 10.105C43.6268 10.0911 43.6189 10.0722 43.6189 10.0525C43.6189 10.0328 43.6268 10.0139 43.6407 10C43.6546 9.98609 43.6735 9.97827 43.6932 9.97827H44.4354C44.455 9.97827 44.4739 9.98609 44.4878 10C44.5018 10.0139 44.5096 10.0328 44.5096 10.0525C44.5096 10.0722 44.5018 10.0911 44.4878 10.105C44.4739 10.1189 44.455 10.1267 44.4354 10.1267ZM42.951 10.1267H42.2088C42.1891 10.1267 42.1702 10.1189 42.1563 10.105C42.1424 10.0911 42.1346 10.0722 42.1346 10.0525C42.1346 10.0328 42.1424 10.0139 42.1563 10C42.1702 9.98609 42.1891 9.97827 42.2088 9.97827H42.951C42.9707 9.97827 42.9895 9.98609 43.0035 10C43.0174 10.0139 43.0252 10.0328 43.0252 10.0525C43.0252 10.0722 43.0174 10.0911 43.0035 10.105C42.9895 10.1189 42.9707 10.1267 42.951 10.1267ZM41.4666 10.1267H40.7244C40.7047 10.1267 40.6859 10.1189 40.6719 10.105C40.658 10.0911 40.6502 10.0722 40.6502 10.0525C40.6502 10.0328 40.658 10.0139 40.6719 10C40.6859 9.98609 40.7047 9.97827 40.7244 9.97827H41.4666C41.4863 9.97827 41.5052 9.98609 41.5191 10C41.533 10.0139 41.5408 10.0328 41.5408 10.0525C41.5408 10.0722 41.533 10.0911 41.5191 10.105C41.5052 10.1189 41.4863 10.1267 41.4666 10.1267ZM39.9822 10.1267H39.24C39.2204 10.1267 39.2015 10.1189 39.1876 10.105C39.1736 10.0911 39.1658 10.0722 39.1658 10.0525C39.1658 10.0328 39.1736 10.0139 39.1876 10C39.2015 9.98609 39.2204 9.97827 39.24 9.97827H39.9822C40.0019 9.97827 40.0208 9.98609 40.0347 10C40.0486 10.0139 40.0564 10.0328 40.0564 10.0525C40.0564 10.0722 40.0486 10.0911 40.0347 10.105C40.0208 10.1189 40.0019 10.1267 39.9822 10.1267ZM38.4979 10.1267H37.7558C37.7361 10.1267 37.7173 10.1189 37.7033 10.105C37.6894 10.0911 37.6816 10.0722 37.6816 10.0525C37.6816 10.0328 37.6894 10.0139 37.7033 10C37.7173 9.98609 37.7361 9.97827 37.7558 9.97827H38.498C38.5177 9.97827 38.5366 9.98609 38.5505 10C38.5644 10.0139 38.5722 10.0328 38.5722 10.0525C38.5722 10.0722 38.5644 10.0911 38.5505 10.105C38.5366 10.1189 38.5177 10.1267 38.498 10.1267H38.4979ZM37.0136 10.1267H36.2714C36.2518 10.1267 36.2329 10.1189 36.219 10.105C36.205 10.0911 36.1972 10.0722 36.1972 10.0525C36.1972 10.0328 36.205 10.0139 36.219 10C36.2329 9.98609 36.2518 9.97827 36.2714 9.97827H37.0136C37.0333 9.97827 37.0522 9.98609 37.0661 10C37.08 10.0139 37.0878 10.0328 37.0878 10.0525C37.0878 10.0722 37.08 10.0911 37.0661 10.105C37.0522 10.1189 37.0333 10.1267 37.0136 10.1267ZM35.5293 10.1267H34.7871C34.7674 10.1267 34.7485 10.1189 34.7346 10.105C34.7207 10.0911 34.7128 10.0722 34.7128 10.0525C34.7128 10.0328 34.7207 10.0139 34.7346 10C34.7485 9.98609 34.7674 9.97827 34.7871 9.97827H35.5293C35.5489 9.97827 35.5678 9.98609 35.5817 10C35.5957 10.0139 35.6035 10.0328 35.6035 10.0525C35.6035 10.0722 35.5957 10.0911 35.5817 10.105C35.5678 10.1189 35.5489 10.1267 35.5293 10.1267ZM34.0449 10.1267H33.3027C33.283 10.1267 33.2641 10.1189 33.2502 10.105C33.2363 10.0911 33.2285 10.0722 33.2285 10.0525C33.2285 10.0328 33.2363 10.0139 33.2502 10C33.2641 9.98609 33.283 9.97827 33.3027 9.97827H34.0449C34.0646 9.97827 34.0834 9.98609 34.0974 10C34.1113 10.0139 34.1191 10.0328 34.1191 10.0525C34.1191 10.0722 34.1113 10.0911 34.0974 10.105C34.0834 10.1189 34.0646 10.1267 34.0449 10.1267ZM32.5605 10.1267H31.8183C31.7986 10.1267 31.7798 10.1189 31.7658 10.105C31.7519 10.0911 31.7441 10.0722 31.7441 10.0525C31.7441 10.0328 31.7519 10.0139 31.7658 10C31.7798 9.98609 31.7986 9.97827 31.8183 9.97827H32.5605C32.5802 9.97827 32.5991 9.98609 32.613 10C32.6269 10.0139 32.6347 10.0328 32.6347 10.0525C32.6347 10.0722 32.6269 10.0911 32.613 10.105C32.5991 10.1189 32.5802 10.1267 32.5605 10.1267ZM31.0761 10.1267H30.3339C30.3143 10.1267 30.2954 10.1189 30.2815 10.105C30.2675 10.0911 30.2597 10.0722 30.2597 10.0525C30.2597 10.0328 30.2675 10.0139 30.2815 10C30.2954 9.98609 30.3143 9.97827 30.3339 9.97827H31.0761C31.0958 9.97827 31.1147 9.98609 31.1286 10C31.1425 10.0139 31.1503 10.0328 31.1503 10.0525C31.1503 10.0722 31.1425 10.0911 31.1286 10.105C31.1147 10.1189 31.0958 10.1267 31.0761 10.1267ZM54.9994 49.5813H44.5376C44.3605 49.5811 44.1907 49.5106 44.0655 49.3854C43.9403 49.2602 43.8699 49.0904 43.8697 48.9133V41.5508C43.8699 41.3737 43.9403 41.2039 44.0655 41.0787C44.1907 40.9534 44.3605 40.883 44.5376 40.8828H54.9995C55.1766 40.883 55.3464 40.9534 55.4716 41.0787C55.5968 41.2039 55.6673 41.3737 55.6675 41.5508V48.9133C55.6673 49.0904 55.5968 49.2602 55.4716 49.3854C55.3464 49.5106 55.1766 49.5811 54.9995 49.5813H54.9994ZM44.5376 41.0312C44.3999 41.0314 44.2678 41.0862 44.1704 41.1836C44.073 41.281 44.0183 41.413 44.0181 41.5508V48.9133C44.0183 49.051 44.073 49.1831 44.1704 49.2805C44.2678 49.3779 44.3999 49.4327 44.5376 49.4328H54.9995C55.1372 49.4327 55.2693 49.3779 55.3667 49.2805C55.4641 49.1831 55.5189 49.051 55.519 48.9133V41.5508C55.5189 41.413 55.4641 41.281 55.3667 41.1836C55.2693 41.0862 55.1372 41.0314 54.9995 41.0312H44.5376Z" fill="black"/>
<path d="M65.5777 10.0997H57.9534C57.6255 10.0997 57.3596 10.3655 57.3596 10.6934V15.9733C57.3596 16.3013 57.6255 16.5671 57.9534 16.5671H65.5777C65.9057 16.5671 66.1715 16.3013 66.1715 15.9733V10.6934C66.1715 10.3655 65.9057 10.0997 65.5777 10.0997Z" fill="#FD6F41"/>
<path d="M17.7006 6.12748C18.0326 6.12748 18.3017 5.85833 18.3017 5.52631C18.3017 5.19429 18.0326 4.92514 17.7006 4.92514C17.3686 4.92514 17.0994 5.19429 17.0994 5.52631C17.0994 5.85833 17.3686 6.12748 17.7006 6.12748Z" fill="#674CFB"/>
<path d="M19.945 6.12748C20.277 6.12748 20.5461 5.85833 20.5461 5.52631C20.5461 5.19429 20.277 4.92514 19.945 4.92514C19.6129 4.92514 19.3438 5.19429 19.3438 5.52631C19.3438 5.85833 19.6129 6.12748 19.945 6.12748Z" fill="#2CA68F"/>
<path d="M22.1893 6.12748C22.5213 6.12748 22.7905 5.85833 22.7905 5.52631C22.7905 5.19429 22.5213 4.92514 22.1893 4.92514C21.8573 4.92514 21.5882 5.19429 21.5882 5.52631C21.5882 5.85833 21.8573 6.12748 22.1893 6.12748Z" fill="#FD6F41"/>
<path d="M66.1714 18.0758H53.4384C53.4187 18.0758 53.3998 18.068 53.3859 18.0541C53.372 18.0402 53.3642 18.0213 53.3642 18.0016C53.3642 17.9819 53.372 17.963 53.3859 17.9491C53.3998 17.9352 53.4187 17.9274 53.4384 17.9274H66.1714C66.1911 17.9274 66.2099 17.9352 66.2238 17.9491C66.2378 17.963 66.2456 17.9819 66.2456 18.0016C66.2456 18.0213 66.2378 18.0402 66.2238 18.0541C66.2099 18.068 66.1911 18.0758 66.1714 18.0758ZM66.1714 19.7453H50.4696C50.45 19.7453 50.4311 19.7375 50.4172 19.7236C50.4032 19.7096 50.3954 19.6908 50.3954 19.6711C50.3954 19.6514 50.4032 19.6325 50.4172 19.6186C50.4311 19.6047 50.45 19.5969 50.4696 19.5969H66.1714C66.1911 19.5969 66.2099 19.6047 66.2238 19.6186C66.2378 19.6325 66.2456 19.6514 66.2456 19.6711C66.2456 19.6908 66.2378 19.7096 66.2238 19.7236C66.2099 19.7375 66.1911 19.7453 66.1714 19.7453ZM66.1714 21.4148H51.954C51.9343 21.4148 51.9155 21.4069 51.9015 21.393C51.8876 21.3791 51.8798 21.3602 51.8798 21.3405C51.8798 21.3209 51.8876 21.302 51.9015 21.2881C51.9155 21.2741 51.9343 21.2663 51.954 21.2663H66.1714C66.1911 21.2663 66.2099 21.2741 66.2238 21.2881C66.2378 21.302 66.2456 21.3209 66.2456 21.3405C66.2456 21.3602 66.2378 21.3791 66.2238 21.393C66.2099 21.4069 66.1911 21.4148 66.1714 21.4148ZM22.6257 33.1528L23.3056 36.5143H24.3684C24.3684 36.5143 22.5999 33.9058 22.6257 33.1528ZM65.3774 15.7232C65.3631 15.7232 65.3492 15.7191 65.3373 15.7114L58.1137 11.0801C58.105 11.0751 58.0974 11.0684 58.0914 11.0603C58.0854 11.0523 58.0811 11.0431 58.0787 11.0334C58.0763 11.0236 58.0759 11.0135 58.0776 11.0036C58.0793 10.9937 58.0829 10.9842 58.0883 10.9758C58.0937 10.9673 58.1008 10.96 58.1091 10.9544C58.1174 10.9488 58.1268 10.9449 58.1366 10.943C58.1465 10.941 58.1566 10.9411 58.1665 10.9433C58.1763 10.9454 58.1855 10.9495 58.1937 10.9553L65.4173 15.5865C65.4307 15.5952 65.441 15.608 65.4466 15.623C65.4522 15.638 65.4528 15.6544 65.4482 15.6698C65.4437 15.6851 65.4344 15.6986 65.4216 15.7082C65.4088 15.7178 65.3932 15.723 65.3772 15.7231L65.3774 15.7232Z" fill="black"/>
<path d="M58.1537 15.7232C58.1376 15.7232 58.122 15.718 58.1092 15.7084C58.0963 15.6988 58.0869 15.6853 58.0824 15.6699C58.0779 15.6545 58.0785 15.638 58.0841 15.623C58.0897 15.608 58.1001 15.5952 58.1136 15.5865L65.3373 10.9553C65.3539 10.9446 65.374 10.941 65.3932 10.9452C65.4125 10.9494 65.4292 10.9611 65.4399 10.9777C65.4505 10.9942 65.4541 11.0144 65.4499 11.0336C65.4457 11.0528 65.434 11.0696 65.4175 11.0802L58.1937 15.7115C58.1818 15.7192 58.1679 15.7233 58.1537 15.7232ZM54.7182 48.4797C54.704 48.4797 54.6901 48.4756 54.6781 48.4679L44.7789 42.1212C44.7706 42.1159 44.7636 42.1091 44.758 42.1011C44.7524 42.0931 44.7485 42.0841 44.7464 42.0746C44.7443 42.065 44.7441 42.0552 44.7459 42.0456C44.7476 42.036 44.7512 42.0268 44.7564 42.0186C44.7617 42.0104 44.7685 42.0033 44.7765 41.9978C44.7845 41.9922 44.7936 41.9883 44.8031 41.9862C44.8126 41.9841 44.8224 41.9839 44.832 41.9856C44.8416 41.9874 44.8508 41.9909 44.859 41.9962L54.7583 48.3431C54.7718 48.3518 54.782 48.3646 54.7876 48.3796C54.7932 48.3946 54.7938 48.411 54.7893 48.4263C54.7847 48.4417 54.7754 48.4552 54.7626 48.4648C54.7498 48.4744 54.7342 48.4796 54.7182 48.4797Z" fill="black"/>
<path d="M44.8189 48.4797C44.8029 48.4797 44.7874 48.4744 44.7746 48.4648C44.7618 48.4552 44.7524 48.4417 44.7479 48.4264C44.7434 48.411 44.744 48.3946 44.7496 48.3796C44.7551 48.3646 44.7654 48.3518 44.7789 48.3431L54.6781 41.9962C54.6947 41.9856 54.7148 41.982 54.7341 41.9862C54.7533 41.9904 54.7701 42.0021 54.7807 42.0187C54.7914 42.0352 54.795 42.0553 54.7908 42.0746C54.7866 42.0938 54.7749 42.1106 54.7583 42.1212L44.8589 48.468C44.8469 48.4757 44.833 48.4799 44.8188 48.4798L44.8189 48.4797Z" fill="black"/>
<path d="M52.0021 34.5389L55.9889 30.5522C56.0167 30.5243 56.0544 30.5087 56.0938 30.5087C56.1332 30.5087 56.1709 30.5243 56.1987 30.5522L58.5895 32.9429C58.6173 32.9707 58.6551 32.9864 58.6944 32.9864C58.7338 32.9864 58.7715 32.9707 58.7994 32.9429L59.872 31.8703C59.8998 31.8425 59.9376 31.8268 59.9769 31.8268C60.0163 31.8268 60.054 31.8425 60.0819 31.8703L62.7171 34.5056C62.7378 34.5264 62.7519 34.5528 62.7577 34.5815C62.7634 34.6102 62.7605 34.64 62.7494 34.6671C62.7382 34.6942 62.7193 34.7174 62.695 34.7338C62.6706 34.7501 62.642 34.7589 62.6127 34.759L52.1075 34.7923C52.0781 34.7924 52.0494 34.7837 52.0249 34.7674C52.0004 34.7512 51.9813 34.728 51.97 34.7008C51.9588 34.6737 51.9558 34.6438 51.9615 34.615C51.9672 34.5862 51.9813 34.5597 52.0021 34.5389Z" fill="#2CA68F"/>
<path d="M59.0328 30.1444C59.5739 30.1444 60.0125 29.7058 60.0125 29.1647C60.0125 28.6236 59.5739 28.185 59.0328 28.185C58.4918 28.185 58.0532 28.6236 58.0532 29.1647C58.0532 29.7058 58.4918 30.1444 59.0328 30.1444Z" fill="#FD6F41"/>
<path d="M26.6799 48.5708H35.0127V49.5214H26.6799V48.5708Z" fill="#FED44A"/>
<path d="M5.13504 26.6825H13.4679V27.6331H5.13504V26.6825Z" fill="#674CFB"/>
<path d="M58.1213 38.2092H66.4541V39.1598H58.1213V38.2092Z" fill="#FD6F41"/>
<path d="M37.3825 42.4202C37.2477 42.4202 37.1159 42.3802 37.0038 42.3053C36.8917 42.2304 36.8043 42.1239 36.7528 41.9994C36.7012 41.8748 36.6877 41.7378 36.714 41.6055C36.7403 41.4733 36.8052 41.3519 36.9005 41.2565C36.9958 41.1612 37.1173 41.0963 37.2495 41.07C37.3817 41.0437 37.5188 41.0572 37.6433 41.1088C37.7679 41.1604 37.8743 41.2477 37.9492 41.3598C38.0241 41.4719 38.0641 41.6037 38.0641 41.7385C38.0639 41.9193 37.992 42.0925 37.8642 42.2203C37.7364 42.3481 37.5632 42.42 37.3825 42.4202ZM37.3825 41.2053C37.277 41.2053 37.174 41.2366 37.0863 41.2952C36.9986 41.3538 36.9302 41.4371 36.8899 41.5345C36.8495 41.6319 36.839 41.7391 36.8595 41.8425C36.8801 41.946 36.9309 42.041 37.0055 42.1155C37.08 42.1901 37.175 42.2409 37.2785 42.2615C37.3819 42.282 37.4891 42.2715 37.5865 42.2311C37.684 42.1908 37.7672 42.1224 37.8258 42.0347C37.8844 41.9471 37.9157 41.844 37.9157 41.7385C37.9155 41.5971 37.8593 41.4616 37.7593 41.3616C37.6593 41.2617 37.5239 41.2055 37.3825 41.2053ZM50.4696 17.2486C50.3348 17.2485 50.2031 17.2085 50.091 17.1336C49.9789 17.0587 49.8916 16.9522 49.84 16.8277C49.7884 16.7031 49.775 16.5661 49.8013 16.4339C49.8276 16.3017 49.8925 16.1802 49.9879 16.0849C50.0832 15.9896 50.2046 15.9247 50.3369 15.8984C50.4691 15.8721 50.6061 15.8856 50.7307 15.9372C50.8552 15.9888 50.9616 16.0762 51.0365 16.1883C51.1114 16.3004 51.1514 16.4321 51.1514 16.5669C51.1512 16.7477 51.0793 16.921 50.9515 17.0488C50.8237 17.1765 50.6504 17.2484 50.4696 17.2486ZM50.4696 16.0338C50.3642 16.0338 50.2611 16.0651 50.1734 16.1237C50.0858 16.1823 50.0175 16.2656 49.9771 16.363C49.9368 16.4604 49.9263 16.5676 49.9469 16.6711C49.9674 16.7745 50.0182 16.8695 50.0928 16.944C50.1674 17.0186 50.2624 17.0693 50.3658 17.0899C50.4692 17.1105 50.5764 17.0999 50.6739 17.0595C50.7713 17.0192 50.8545 16.9508 50.9131 16.8631C50.9717 16.7755 51.003 16.6724 51.003 16.5669C51.0028 16.4256 50.9466 16.29 50.8466 16.19C50.7466 16.0901 50.611 16.0339 50.4696 16.0338Z" fill="black"/>
<path d="M56.7845 52.7474L55.6979 52.4505L56.4876 51.5124L56.7845 52.7474ZM10.9262 18.6192L9.83961 18.3224L10.6293 17.3842L10.9262 18.6192Z" fill="#FED44A"/>
<path d="M13.0328 40.0976L11.9463 39.8007L12.7359 38.8626L13.0328 40.0976ZM24.5225 13.8636L23.4359 13.5668L24.2256 12.6286L24.5225 13.8636Z" fill="#674CFB"/>
<path d="M45.3621 60.4175L44.2755 60.1206L45.0652 59.1825L45.3621 60.4175Z" fill="#2CA68F"/>
</svg>
